<?xml version="1.0" encoding="UTF-8" standalone="no"?>
<svg
   viewBox="0 0 512 512"
   version="1.1"
   id="svg51"
   sodipodi:docname="arrow-up-right-from-square.svg"
   inkscape:version="1.1.2 (0a00cf5339, 2022-02-04)"
   xmlns:inkscape="http://www.inkscape.org/namespaces/inkscape"
   xmlns:sodipodi="http://sodipodi.sourceforge.net/DTD/sodipodi-0.dtd"
   xmlns="http://www.w3.org/2000/svg"
   xmlns:svg="http://www.w3.org/2000/svg">
  <defs
     id="defs55" />
  <sodipodi:namedview
     id="namedview53"
     pagecolor="#ffffff"
     bordercolor="#666666"
     borderopacity="1.0"
     inkscape:pageshadow="2"
     inkscape:pageopacity="0.0"
     inkscape:pagecheckerboard="0"
     showgrid="false"
     inkscape:zoom="1.2148438"
     inkscape:cx="93.427653"
     inkscape:cy="256"
     inkscape:window-width="1600"
     inkscape:window-height="831"
     inkscape:window-x="0"
     inkscape:window-y="32"
     inkscape:window-maximized="1"
     inkscape:current-layer="svg51" />
  <!--! Font Awesome Free 6.5.1 by @fontawesome - https://fontawesome.com License - https://fontawesome.com/license/free (Icons: CC BY 4.0, Fonts: SIL OFL 1.1, Code: MIT License) Copyright 2023 Fonticons, Inc. -->
  <path
     d="M320 0c-17.7 0-32 14.3-32 32s14.3 32 32 32h82.7L201.4 265.4c-12.5 12.5-12.5 32.8 0 45.3s32.8 12.5 45.3 0L448 109.3V192c0 17.7 14.3 32 32 32s32-14.3 32-32V32c0-17.7-14.3-32-32-32H320zM80 32C35.8 32 0 67.8 0 112V432c0 44.2 35.8 80 80 80H400c44.2 0 80-35.8 80-80V320c0-17.7-14.3-32-32-32s-32 14.3-32 32V432c0 8.8-7.2 16-16 16H80c-8.8 0-16-7.2-16-16V112c0-8.8 7.2-16 16-16H192c17.7 0 32-14.3 32-32s-14.3-32-32-32H80z"
     id="path49" />
  <path
     style="fill:#00a601;stroke-width:0.823151;fill-opacity:1"
     d="M 72.73536,511.13732 C 39.541667,508.18161 11.833626,484.41243 2.7337002,451.08682 L 0.82315113,444.09003 V 272.05145 c 0,-161.51755 0.0885779,-172.383589 1.44841377,-177.679999 7.9048901,-30.788666 30.1478741,-52.61968 61.5226471,-60.383165 4.609237,-1.140525 13.870433,-1.369419 66.849518,-1.652211 41.41709,-0.221076 63.05488,-0.04155 66.26367,0.549787 10.47933,1.931198 19.07219,8.530335 23.62976,18.147149 2.29075,4.833667 2.53393,6.1113 2.50724,13.172777 -0.0261,6.913189 -0.30662,8.392617 -2.41889,12.758842 -3.04711,6.298586 -9.76828,13.033604 -15.85163,15.884307 l -4.74816,2.225018 -62.55948,0.411576 c -68.169193,0.448481 -64.831558,0.204307 -69.254198,5.066479 -4.755574,5.2282 -4.419488,-7.853329 -4.399752,171.25277 0.01746,158.44858 0.07065,164.1695 1.556706,167.44191 1.889584,4.16099 5.869143,7.3055 10.772483,8.51205 2.661872,0.655 49.487871,0.84614 166.411491,0.67926 l 162.70732,-0.23221 3.56223,-2.50369 c 1.95922,-1.37703 4.39272,-3.96996 5.40775,-5.76206 l 1.84554,-3.25837 0.0135,-58.49834 c 0.009,-38.51602 0.31917,-60.16675 0.90827,-63.38263 2.43233,-13.27806 12.67366,-23.4093 26.13034,-25.84947 13.38577,-2.4273 27.24422,5.0732 33.4092,18.08179 l 2.53683,5.35283 0.2258,62.90321 c 0.24874,69.29415 0.1771,70.55731 -4.77724,84.24934 -6.80833,18.81572 -22.79774,36.05838 -41.41335,44.65931 -8.47477,3.91559 -16.81171,6.04804 -27.29566,6.98177 -10.74997,0.95743 -322.295286,0.91799 -333.07814,-0.0421 z"
     id="path248" />
  <path
     style="fill:#00a601;fill-opacity:1;stroke-width:0.823151"
     d="m 215.0779,318.23565 c -8.55557,-2.79024 -15.99524,-9.3991 -19.85904,-17.64131 -1.88962,-4.03092 -2.18992,-5.74384 -2.18992,-12.49145 0,-6.87148 0.29158,-8.46887 2.40409,-13.17041 2.27434,-5.06172 7.95853,-10.91342 105.3196,-108.42349 l 102.9155,-103.073 -46.05272,-0.232464 -46.05271,-0.232465 -4.74577,-2.329427 c -12.6208,-6.194835 -20.30431,-20.616146 -17.88647,-33.57142 2.66325,-14.270281 13.3253,-24.3261218 27.93997,-26.35139909 3.39323,-0.47022936 38.54696,-0.69007393 87.43751,-0.54681699 80.83429,0.23685696 81.81042,0.25915851 85.95599,1.96381458 9.3963,3.8637514 15.68094,10.0855875 19.46058,19.2661165 l 1.86391,4.527331 0.24016,81.08039 c 0.13714,46.30114 -0.0866,83.7837 -0.52167,87.38259 -1.83867,15.21039 -11.86742,25.9757 -26.76379,28.72944 -12.64342,2.33726 -26.87165,-5.33189 -33.10274,-17.84268 l -2.41144,-4.8417 -0.23248,-46.06209 -0.23249,-46.06208 -103.07298,102.96244 C 229.57623,327.066 238.97383,318.61742 225.54341,319.1102 c -4.38436,0.16086 -8.29192,-0.16567 -10.46551,-0.87455 z"
     id="path1213" />
</svg>
